<?xml version="1.0" encoding="UTF-8"?>
<svg xmlns="http://www.w3.org/2000/svg" width="1200" height="630" viewBox="0 0 1200 630">
  <!-- Background gradient -->
  <defs>
    <linearGradient id="bgGrad" x1="0%" y1="0%" x2="100%" y2="100%">
      <stop offset="0%" style="stop-color:#4a90e2;stop-opacity:1" />
      <stop offset="100%" style="stop-color:#7b68ee;stop-opacity:1" />
    </linearGradient>
    <linearGradient id="phoneGrad" x1="0%" y1="0%" x2="100%" y2="100%">
      <stop offset="0%" style="stop-color:#66c3ff;stop-opacity:1" />
      <stop offset="100%" style="stop-color:#4a90e2;stop-opacity:1" />
    </linearGradient>
    <linearGradient id="packageGrad" x1="0%" y1="0%" x2="100%" y2="100%">
      <stop offset="0%" style="stop-color:#81c784;stop-opacity:1" />
      <stop offset="100%" style="stop-color:#66bb6a;stop-opacity:1" />
    </linearGradient>
  </defs>
  
  <!-- Background -->
  <rect width="1200" height="630" fill="url(#bgGrad)"/>
  
  <!-- Main content container -->
  <g transform="translate(150, 150)">
    <!-- Phone illustration -->
    <g transform="translate(50, 80)">
      <!-- Hand -->
      <path d="M50 120 C45 115, 40 110, 40 100 C40 90, 45 85, 55 85 C65 85, 70 90, 70 100 L70 110 L120 110 C130 110, 135 115, 135 125 L135 160 C135 170, 130 175, 120 175 L60 175 C50 175, 45 170, 45 160 L45 130 C45 125, 47 122, 50 120 Z" fill="#ffcc99"/>
      
      <!-- Phone -->
      <rect x="80" y="20" width="100" height="160" rx="20" fill="url(#phoneGrad)" stroke="#ffffff" stroke-width="3"/>
      
      <!-- Phone screen -->
      <rect x="90" y="35" width="80" height="130" rx="10" fill="#ffffff"/>
      
      <!-- Package on screen -->
      <rect x="105" y="60" width="50" height="40" fill="url(#packageGrad)" rx="5"/>
      
      <!-- Lightning bolt -->
      <path d="M130 85 L135 75 L125 75 L130 65 L125 75 L130 85" fill="#ffa726" stroke="#ff9800" stroke-width="1"/>
      
      <!-- Package lines -->
      <line x1="110" y1="80" x2="150" y2="80" stroke="#ffffff" stroke-width="2"/>
      <line x1="130" y1="65" x2="130" y2="95" stroke="#ffffff" stroke-width="2"/>
      
      <!-- Phone button -->
      <circle cx="130" cy="155" r="8" fill="#ffffff" opacity="0.8"/>
    </g>
    
    <!-- Title text -->
    <g transform="translate(300, 120)">
      <text x="0" y="0" fill="#ffffff" font-family="Arial, sans-serif" font-size="72" font-weight="bold">
        Entregas
      </text>
      <text x="380" y="0" fill="#ffa726" font-family="Arial, sans-serif" font-size="72" font-weight="bold">
        Zap
      </text>
      
      <!-- Subtitle -->
      <text x="0" y="60" fill="#e3f2fd" font-family="Arial, sans-serif" font-size="28" opacity="0.9">
        Sistema de Gestão de Entregas
      </text>
    </g>
    
    <!-- Decorative elements -->
    <g opacity="0.6">
      <circle cx="50" cy="50" r="15" fill="#81c784"/>
      <circle cx="800" cy="80" r="12" fill="#ffa726"/>
      <circle cx="750" cy="250" r="20" fill="#64b5f6"/>
      <circle cx="100" cy="280" r="10" fill="#ffffff"/>
    </g>
  </g>
</svg>